<svg id="Layer_1" data-name="Layer 1" xmlns="http://www.w3.org/2000/svg" viewBox="0 0 470.2 151.84"><defs><style>.cls-1,.cls-3,.cls-5{fill:#c6ac75;}.cls-2,.cls-4{fill:#18254b;}.cls-2{fill-opacity:0.6;}.cls-3{font-size:139.2px;font-family:Maitree-Bold, Maitree;font-weight:700;}.cls-5{font-size:132.73px;font-family:HelveticaNeue-Medium, Helvetica Neue;font-weight:500;}</style></defs><title>pittmath_logo</title><polygon class="cls-1" points="237.03 20.58 178.16 113.75 295.89 113.75 237.03 20.58"/><rect class="cls-2" x="27.14" y="10.19" width="188.55" height="113.58"/><text class="cls-3" transform="translate(69.32 17.1) rotate(90) scale(1.1 1)">∑</text><path class="cls-4" d="M262.61,154a2.66,2.66,0,0,0,.72,4.08c4.85,3.06,8.88,7.72,15.65,7,4-.4,4.86.74,4.89,4.8.07,10.36,0,20.71,0,31.07,0,1.21-.09,2.42,0,3.62.22,2.45,1.51,4,3.31,3.84,2.12-.15,2.92-1.55,3.07-3.5.29-4.12.61-8.25.91-12.38.15-2.06.14-4.15.47-6.19.14-.87,1-1.64,1.46-2.46.62.89,1.58,1.71,1.78,2.69a42.36,42.36,0,0,1,.44,5.66c.29,4.13.62,8.26.9,12.39.13,2.12.9,3.88,3.31,3.75s3.1-1.9,3.11-4V184.19c0-5.86.06-11.73,0-17.6-.07-5.67-2.17-7.72-7.91-7.8-5-.06-10.08-.14-15.1.05a11.44,11.44,0,0,1-7.74-2.34,54.8,54.8,0,0,0-5.21-3.4A2.84,2.84,0,0,0,262.61,154Z" transform="translate(-54.75 -83.38)"/><path class="cls-4" d="M293.48,133.92a9.3,9.3,0,1,0,9.17,9.35A9.4,9.4,0,0,0,293.48,133.92Z" transform="translate(-54.75 -83.38)"/><text class="cls-5" transform="translate(277.54 113.75) scale(1.1 1)">TH</text></svg>